<svg xmlns="http://www.w3.org/2000/svg" viewBox="0 0 320 48" width="320" height="48">
  <g transform="translate(4, 4)">
    <path d="M20 2L6 8v10c0 9.55 5.97 18.48 14 20.85C28.03 36.48 34 27.55 34 18V8L20 2z" fill="none" stroke="#6399ff" stroke-width="2" stroke-linejoin="round"/>
    <path d="M20 6L10 10.5v8.5c0 7.2 4.3 13.9 10 15.8 5.7-1.9 10-8.6 10-15.8v-8.5L20 6z" fill="rgba(99,153,255,0.15)"/>
    <rect x="15" y="17" width="10" height="8" rx="1.5" fill="#6399ff"/>
    <path d="M17.5 17v-3a2.5 2.5 0 015 0v3" fill="none" stroke="#6399ff" stroke-width="1.5" stroke-linecap="round"/>
    <circle cx="20" cy="21.5" r="1.2" fill="#0a0e17"/>
    <line x1="20" y1="22.5" x2="20" y2="24" stroke="#0a0e17" stroke-width="1.2" stroke-linecap="round"/>
  </g>
  <text x="48" y="22" font-family="Arial, Helvetica, sans-serif" font-weight="700" font-size="18" fill="#e2e8f0" letter-spacing="0.5">VLASENKO EVGENY</text>
  <text x="48" y="40" font-family="Arial, Helvetica, sans-serif" font-weight="300" font-size="16" fill="#6399ff" letter-spacing="3">STAND</text>
</svg>
